<svg width="800" height="800" viewBox="0 0 800 800" fill="none" xmlns="http://www.w3.org/2000/svg">
<g clip-path="url(#clip0_198_9)">
<path d="M399.977 0.125C320.864 0.125 243.528 23.5842 177.749 67.5368C111.969 111.489 60.7 173.961 30.4249 247.051C0.149875 320.142 -7.77146 400.568 7.66263 478.161C23.0967 555.753 61.1928 627.026 117.134 682.967C173.075 738.908 244.348 777.005 321.94 792.439C399.533 807.873 479.959 799.952 553.05 769.677C626.14 739.402 688.612 688.132 732.565 622.352C776.518 556.573 799.977 479.238 799.977 400.125C799.977 294.038 757.834 192.297 682.82 117.282C607.805 42.2674 506.063 0.125 399.977 0.125ZM399.977 700.125C340.642 700.125 282.641 682.53 233.306 649.566C183.971 616.601 145.519 569.748 122.813 514.93C100.107 460.112 94.166 399.792 105.742 341.598C117.317 283.403 145.889 229.948 187.845 187.993C229.8 146.037 283.255 117.465 341.449 105.889C399.644 94.3134 459.964 100.254 514.782 122.961C569.599 145.667 616.453 184.119 649.418 233.453C682.382 282.788 699.977 340.791 699.977 400.125C699.977 479.69 668.37 555.996 612.109 612.257C555.848 668.517 479.542 700.125 399.977 700.125Z" fill="white"/>
<path d="M620.775 108.586L108.68 620.699L179.392 691.409L691.487 179.295L620.775 108.586Z" fill="white"/>
</g>
<defs>
<clipPath id="clip0_198_9">
<rect width="800" height="800" fill="white"/>
</clipPath>
</defs>
</svg>
